<svg xmlns="http://www.w3.org/2000/svg" xmlns:xlink="http://www.w3.org/1999/xlink" id="processonSvg1000" viewBox="1.0 103.0 717.0 770.0" width="717.0" height="770.0"><defs id="ProcessOnDefs1001"><marker id="ProcessOnMarker1011" markerUnits="userSpaceOnUse" orient="auto" markerWidth="16.23606797749979" markerHeight="10.550836550532098" viewBox="-1.0 -1.3763819204711736 16.23606797749979 10.550836550532098" refX="-1.0" refY="3.8990363547948754"><path id="ProcessOnPath1012" d="M12.0 3.8990363547948754L0.0 7.798072709589751V0.0Z" stroke="#5c5c5c" stroke-width="2.0" fill="#5c5c5c" transform="matrix(1.0,0.0,0.0,1.0,0.0,0.0)"/></marker><marker id="ProcessOnMarker1022" markerUnits="userSpaceOnUse" orient="auto" markerWidth="16.23606797749979" markerHeight="10.550836550532098" viewBox="-1.0 -1.3763819204711736 16.23606797749979 10.550836550532098" refX="-1.0" refY="3.8990363547948754"><path id="ProcessOnPath1023" d="M12.0 3.8990363547948754L0.0 7.798072709589751V0.0Z" stroke="#323232" stroke-width="2.0" fill="#323232" transform="matrix(1.0,0.0,0.0,1.0,0.0,0.0)"/></marker><marker id="ProcessOnMarker1030" markerUnits="userSpaceOnUse" orient="auto" markerWidth="16.23606797749979" markerHeight="10.550836550532098" viewBox="-1.0 -1.3763819204711736 16.23606797749979 10.550836550532098" refX="-1.0" refY="3.8990363547948754"><path id="ProcessOnPath1031" d="M12.0 3.8990363547948754L0.0 7.798072709589751V0.0Z" stroke="#323232" stroke-width="2.0" fill="#323232" transform="matrix(1.0,0.0,0.0,1.0,0.0,0.0)"/></marker><marker id="ProcessOnMarker1038" markerUnits="userSpaceOnUse" orient="auto" markerWidth="16.23606797749979" markerHeight="10.550836550532098" viewBox="-1.0 -1.3763819204711736 16.23606797749979 10.550836550532098" refX="-1.0" refY="3.8990363547948754"><path id="ProcessOnPath1039" d="M12.0 3.8990363547948754L0.0 7.798072709589751V0.0Z" stroke="#323232" stroke-width="2.0" fill="#323232" transform="matrix(1.0,0.0,0.0,1.0,0.0,0.0)"/></marker><marker id="ProcessOnMarker1046" markerUnits="userSpaceOnUse" orient="auto" markerWidth="16.23606797749979" markerHeight="10.550836550532098" viewBox="-1.0 -1.3763819204711736 16.23606797749979 10.550836550532098" refX="-1.0" refY="3.8990363547948754"><path id="ProcessOnPath1047" d="M12.0 3.8990363547948754L0.0 7.798072709589751V0.0Z" stroke="#323232" stroke-width="2.0" fill="#323232" transform="matrix(1.0,0.0,0.0,1.0,0.0,0.0)"/></marker><marker id="ProcessOnMarker1054" markerUnits="userSpaceOnUse" orient="auto" markerWidth="16.23606797749979" markerHeight="10.550836550532098" viewBox="-1.0 -1.3763819204711736 16.23606797749979 10.550836550532098" refX="-1.0" refY="3.8990363547948754"><path id="ProcessOnPath1055" d="M12.0 3.8990363547948754L0.0 7.798072709589751V0.0Z" stroke="#323232" stroke-width="2.0" fill="#323232" transform="matrix(1.0,0.0,0.0,1.0,0.0,0.0)"/></marker><marker id="ProcessOnMarker1062" markerUnits="userSpaceOnUse" orient="auto" markerWidth="16.23606797749979" markerHeight="10.550836550532098" viewBox="-1.0 -1.3763819204711736 16.23606797749979 10.550836550532098" refX="-1.0" refY="3.8990363547948754"><path id="ProcessOnPath1063" d="M12.0 3.8990363547948754L0.0 7.798072709589751V0.0Z" stroke="#323232" stroke-width="2.0" fill="#323232" transform="matrix(1.0,0.0,0.0,1.0,0.0,0.0)"/></marker><marker id="ProcessOnMarker1077" markerUnits="userSpaceOnUse" orient="auto" markerWidth="16.23606797749979" markerHeight="10.550836550532098" viewBox="-1.0 -1.3763819204711736 16.23606797749979 10.550836550532098" refX="-1.0" refY="3.8990363547948754"><path id="ProcessOnPath1078" d="M12.0 3.8990363547948754L0.0 7.798072709589751V0.0Z" stroke="#323232" stroke-width="2.0" fill="#323232" transform="matrix(1.0,0.0,0.0,1.0,0.0,0.0)"/></marker><marker id="ProcessOnMarker1081" markerUnits="userSpaceOnUse" orient="auto" markerWidth="16.23606797749979" markerHeight="10.550836550532098" viewBox="-1.0 -1.3763819204711736 16.23606797749979 10.550836550532098" refX="-1.0" refY="3.8990363547948754"><path id="ProcessOnPath1082" d="M12.0 3.8990363547948754L0.0 7.798072709589751V0.0Z" stroke="#323232" stroke-width="2.0" fill="#323232" transform="matrix(1.0,0.0,0.0,1.0,0.0,0.0)"/></marker><marker id="ProcessOnMarker1108" markerUnits="userSpaceOnUse" orient="auto" markerWidth="16.23606797749979" markerHeight="10.550836550532098" viewBox="-1.0 -1.3763819204711736 16.23606797749979 10.550836550532098" refX="-1.0" refY="3.8990363547948754"><path id="ProcessOnPath1109" d="M12.0 3.8990363547948754L0.0 7.798072709589751V0.0Z" stroke="#323232" stroke-width="2.0" fill="#323232" transform="matrix(1.0,0.0,0.0,1.0,0.0,0.0)"/></marker><marker id="ProcessOnMarker1112" markerUnits="userSpaceOnUse" orient="auto" markerWidth="16.23606797749979" markerHeight="10.550836550532098" viewBox="-1.0 -1.3763819204711736 16.23606797749979 10.550836550532098" refX="-1.0" refY="3.8990363547948754"><path id="ProcessOnPath1113" d="M12.0 3.8990363547948754L0.0 7.798072709589751V0.0Z" stroke="#323232" stroke-width="2.0" fill="#323232" transform="matrix(1.0,0.0,0.0,1.0,0.0,0.0)"/></marker><marker id="ProcessOnMarker1124" markerUnits="userSpaceOnUse" orient="auto" markerWidth="16.23606797749979" markerHeight="10.550836550532098" viewBox="-1.0 -1.3763819204711736 16.23606797749979 10.550836550532098" refX="-1.0" refY="3.8990363547948754"><path id="ProcessOnPath1125" d="M12.0 3.8990363547948754L0.0 7.798072709589751V0.0Z" stroke="#323232" stroke-width="2.0" fill="#323232" transform="matrix(1.0,0.0,0.0,1.0,0.0,0.0)"/></marker></defs><g id="ProcessOnG1002"><path id="ProcessOnPath1003" d="M1.0 103.0H718.0V873.0H1.0V103.0Z" fill="none"/><g id="ProcessOnG1004"><g id="ProcessOnG1005" transform="matrix(1.0,0.0,0.0,1.0,106.875,123.0)" opacity="1.0"><path id="ProcessOnPath1006" d="M0.0 0.0L142.5 0.0L142.5 49.0L0.0 49.0Z" stroke="#99ccff" stroke-width="2.0" stroke-dasharray="none" opacity="1.0" fill="#99ccff"/><g id="ProcessOnG1007" transform="matrix(1.0,0.0,0.0,1.0,10.0,16.375)"><text id="ProcessOnText1008" fill="#000000" font-weight="normal" font-style="normal" text-decoration="blink" font-family="微软雅黑" text-anchor="middle" font-size="13" x="61.25" y="13.325">addModuleChain</text></g></g><g id="ProcessOnG1009"><path id="ProcessOnPath1010" d="M178.125 579.0L178.125 605.5L178.125 605.5L178.125 616.7639320225002" stroke="#5c5c5c" stroke-width="2.0" stroke-dasharray="none" fill="none" marker-end="url(#ProcessOnMarker1011)"/><g id="ProcessOnG1013" transform="matrix(1.0,0.0,0.0,1.0,178.125,589.7569660112501)"><path id="ProcessOnPath1014" d="M0 0H13.0V16.25H0Z" fill="#fff" transform="matrix(1.0,0.0,0.0,1.0,-6.5,0.0)"/><text id="ProcessOnText1015" fill="#000000" font-weight="normal" font-style="normal" text-decoration="blink" font-family="微软雅黑" text-anchor="middle" font-size="13" x="0.0" y="13.325">是</text></g></g><g id="ProcessOnG1016" transform="matrix(1.0,0.0,0.0,1.0,57.5,221.0)" opacity="1.0"><path id="ProcessOnPath1017" d="M0.0 0.0L241.25 0.0L241.25 26.0L0.0 26.0Z" stroke="#323232" stroke-width="2.0" stroke-dasharray="none" opacity="1.0" fill="#ffffff"/><g id="ProcessOnG1018" transform="matrix(1.0,0.0,0.0,1.0,10.0,4.875)"><text id="ProcessOnText1019" fill="#000000" font-weight="normal" font-style="normal" text-decoration="blink" font-family="微软雅黑" text-anchor="middle" font-size="13" x="110.625" y="13.325">xxModuleFactory#creteModule</text></g></g><g id="ProcessOnG1020"><path id="ProcessOnPath1021" d="M178.125 172.0L178.125 196.5L178.125 196.5L178.125 205.7639320225002" stroke="#323232" stroke-width="2.0" stroke-dasharray="none" fill="none" marker-end="url(#ProcessOnMarker1022)"/></g><g id="ProcessOnG1024" transform="matrix(1.0,0.0,0.0,1.0,57.625,288.0)" opacity="1.0"><path id="ProcessOnPath1025" d="M0.0 0.0L241.25 0.0L241.25 34.0L0.0 34.0Z" stroke="#323232" stroke-width="2.0" stroke-dasharray="none" opacity="1.0" fill="#ffffff"/><g id="ProcessOnG1026" transform="matrix(1.0,0.0,0.0,1.0,10.0,8.875)"><text id="ProcessOnText1027" fill="#000000" font-weight="normal" font-style="normal" text-decoration="blink" font-family="微软雅黑" text-anchor="middle" font-size="13" x="110.625" y="13.325">获取单个模块及其loader的绝对路径</text></g></g><g id="ProcessOnG1028"><path id="ProcessOnPath1029" d="M178.125 247.0L178.125 267.5L178.25 267.5L178.25 272.7639320225002" stroke="#323232" stroke-width="2.0" stroke-dasharray="none" fill="none" marker-end="url(#ProcessOnMarker1030)"/></g><g id="ProcessOnG1032" transform="matrix(1.0,0.0,0.0,1.0,57.625,367.0)" opacity="1.0"><path id="ProcessOnPath1033" d="M0.0 0.0L241.0 0.0L241.0 32.0L0.0 32.0Z" stroke="#323232" stroke-width="2.0" stroke-dasharray="none" opacity="1.0" fill="#ffffff"/><g id="ProcessOnG1034" transform="matrix(1.0,0.0,0.0,1.0,10.0,7.875)"><text id="ProcessOnText1035" fill="#000000" font-weight="normal" font-style="normal" text-decoration="blink" font-family="微软雅黑" text-anchor="middle" font-size="13" x="110.5" y="13.325">加载loader，尤其是要处理掉pitch</text></g></g><g id="ProcessOnG1036"><path id="ProcessOnPath1037" d="M178.25 322.0L178.25 344.5L178.125 344.5L178.125 351.7639320225002" stroke="#323232" stroke-width="2.0" stroke-dasharray="none" fill="none" marker-end="url(#ProcessOnMarker1038)"/></g><g id="ProcessOnG1040" transform="matrix(1.0,0.0,0.0,1.0,54.9375,445.0)" opacity="1.0"><path id="ProcessOnPath1041" d="M0.0 0.0L246.375 0.0L246.375 41.0L0.0 41.0Z" stroke="#323232" stroke-width="2.0" stroke-dasharray="none" opacity="1.0" fill="#ffffff"/><g id="ProcessOnG1042" transform="matrix(1.0,0.0,0.0,1.0,10.0,12.375)"><text id="ProcessOnText1043" fill="#000000" font-weight="normal" font-style="normal" text-decoration="blink" font-family="微软雅黑" text-anchor="middle" font-size="13" x="113.1875" y="13.325">读取文件内容，传递给loader处理</text></g></g><g id="ProcessOnG1044"><path id="ProcessOnPath1045" d="M178.125 399.0L178.125 422.0L178.125 422.0L178.125 429.7639320225002" stroke="#323232" stroke-width="2.0" stroke-dasharray="none" fill="none" marker-end="url(#ProcessOnMarker1046)"/></g><g id="ProcessOnG1048" transform="matrix(1.0,0.0,0.0,1.0,100.625,534.0)" opacity="1.0"><path id="ProcessOnPath1049" d="M0.0 22.5L77.5 0.0L155.0 22.5L77.5 45.0L0.0 22.5Z" stroke="#323232" stroke-width="2.0" stroke-dasharray="none" opacity="1.0" fill="#ffffff"/><g id="ProcessOnG1050" transform="matrix(1.0,0.0,0.0,1.0,10.0,14.375)"><text id="ProcessOnText1051" fill="#000000" font-weight="normal" font-style="normal" text-decoration="blink" font-family="微软雅黑" text-anchor="middle" font-size="13" x="67.5" y="13.325">模块是否noParse</text></g></g><g id="ProcessOnG1052"><path id="ProcessOnPath1053" d="M178.125 486.0L178.125 510.0L178.125 510.0L178.125 518.7639320225002" stroke="#323232" stroke-width="2.0" stroke-dasharray="none" fill="none" marker-end="url(#ProcessOnMarker1054)"/></g><g id="ProcessOnG1056" transform="matrix(1.0,0.0,0.0,1.0,340.0,529.25)" opacity="1.0"><path id="ProcessOnPath1057" d="M0.0 0.0L168.0 0.0L168.0 54.5L0.0 54.5Z" stroke="#323232" stroke-width="2.0" stroke-dasharray="none" opacity="1.0" fill="#ffffff"/><g id="ProcessOnG1058" transform="matrix(1.0,0.0,0.0,1.0,10.0,19.125)"><text id="ProcessOnText1059" fill="#000000" font-weight="normal" font-style="normal" text-decoration="blink" font-family="微软雅黑" text-anchor="middle" font-size="13" x="74.0" y="13.325">parser用acorn生成ast</text></g></g><g id="ProcessOnG1060"><path id="ProcessOnPath1061" d="M255.625 556.5L297.8125 556.5L297.8125 556.5L324.7639320225002 556.5" stroke="#323232" stroke-width="2.0" stroke-dasharray="none" fill="none" marker-end="url(#ProcessOnMarker1062)"/><g id="ProcessOnG1064" transform="matrix(1.0,0.0,0.0,1.0,290.19446601125014,548.375)"><path id="ProcessOnPath1065" d="M0 0H13.0V16.25H0Z" fill="#fff" transform="matrix(1.0,0.0,0.0,1.0,-6.5,0.0)"/><text id="ProcessOnText1066" fill="#000000" font-weight="normal" font-style="normal" text-decoration="blink" font-family="微软雅黑" text-anchor="middle" font-size="13" x="0.0" y="13.325">否</text></g></g><g id="ProcessOnG1067" transform="matrix(1.0,0.0,0.0,1.0,91.875,632.0)" opacity="1.0"><path id="ProcessOnPath1068" d="M0.0 0.0L172.5 0.0L172.5 48.0L0.0 48.0Z" stroke="#323232" stroke-width="2.0" stroke-dasharray="none" opacity="1.0" fill="#ffffff"/><g id="ProcessOnG1069" transform="matrix(1.0,0.0,0.0,1.0,10.0,15.875)"><text id="ProcessOnText1070" fill="#000000" font-weight="normal" font-style="normal" text-decoration="blink" font-family="微软雅黑" text-anchor="middle" font-size="13" x="76.25" y="13.325">processDependencies</text></g></g><g id="ProcessOnG1071" transform="matrix(1.0,0.0,0.0,1.0,112.625,706.0)" opacity="1.0"><path id="ProcessOnPath1072" d="M0.0 32.5L65.5 0.0L131.0 32.5L65.5 65.0L0.0 32.5Z" stroke="#323232" stroke-width="2.0" stroke-dasharray="none" opacity="1.0" fill="#ffffff"/><g id="ProcessOnG1073" transform="matrix(1.0,0.0,0.0,1.0,10.0,24.375)"><text id="ProcessOnText1074" fill="#000000" font-weight="normal" font-style="normal" text-decoration="blink" font-family="微软雅黑" text-anchor="middle" font-size="13" x="55.5" y="13.325">是否有依赖</text></g></g><g id="ProcessOnG1075"><path id="ProcessOnPath1076" d="M178.125 680.0L178.125 693.0L178.125 693.0L178.125 694.0" stroke="#323232" stroke-width="2.0" stroke-dasharray="none" fill="none" marker-end="url(#ProcessOnMarker1077)"/></g><g id="ProcessOnG1079"><path id="ProcessOnPath1080" d="M112.625 738.5L27.5 738.5L27.5 234.0L42.263932022500214 234.0" stroke="#323232" stroke-width="2.0" stroke-dasharray="none" fill="none" marker-end="url(#ProcessOnMarker1081)"/><g id="ProcessOnG1083" transform="matrix(1.0,0.0,0.0,1.0,27.5,513.3055339887499)"><path id="ProcessOnPath1084" d="M0 0H13.0V16.25H0Z" fill="#fff" transform="matrix(1.0,0.0,0.0,1.0,-6.5,0.0)"/><text id="ProcessOnText1085" fill="#000000" font-weight="normal" font-style="normal" text-decoration="blink" font-family="微软雅黑" text-anchor="middle" font-size="13" x="0.0" y="13.325">是</text></g></g><g id="ProcessOnG1086" transform="matrix(1.0,0.0,0.0,1.0,121.125,808.0)" opacity="1.0"><path id="ProcessOnPath1087" d="M0.0 0.0L114.0 0.0L114.0 45.0L0.0 45.0Z" stroke="#323232" stroke-width="2.0" stroke-dasharray="none" opacity="1.0" fill="#ffffff"/><g id="ProcessOnG1088" transform="matrix(1.0,0.0,0.0,1.0,10.0,14.375)"><text id="ProcessOnText1089" fill="#000000" font-weight="normal" font-style="normal" text-decoration="blink" font-family="微软雅黑" text-anchor="middle" font-size="13" x="47.0" y="13.325">make结束</text></g></g><g id="ProcessOnG1090" transform="matrix(1.0,0.0,0.0,1.0,309.0,289.0)" opacity="1.0"><path id="ProcessOnPath1091" d="M0.0 0.0L124.0 0.0L124.0 32.0L0.0 32.0Z" stroke="#323232" stroke-width="0.0" stroke-dasharray="none" opacity="1.0" fill="none"/><g id="ProcessOnG1092" transform="matrix(1.0,0.0,0.0,1.0,0.0,7.875)"><text id="ProcessOnText1093" fill="#000000" font-weight="normal" font-style="normal" text-decoration="blink" font-family="微软雅黑" text-anchor="middle" font-size="13" x="62.0" y="13.325">都使用Resolver解析</text></g></g><g id="ProcessOnG1094" transform="matrix(1.0,0.0,0.0,1.0,309.0,370.5)" opacity="1.0"><path id="ProcessOnPath1095" d="M0.0 0.0L175.0 0.0L175.0 25.0L0.0 25.0Z" stroke="#323232" stroke-width="0.0" stroke-dasharray="none" opacity="1.0" fill="none"/><g id="ProcessOnG1096" transform="matrix(1.0,0.0,0.0,1.0,0.0,4.375)"><text id="ProcessOnText1097" fill="#000000" font-weight="normal" font-style="normal" text-decoration="blink" font-family="微软雅黑" text-anchor="middle" font-size="13" x="87.5" y="13.325">pitch是指跳过之前的loader</text></g></g><g id="ProcessOnG1098" transform="matrix(1.0,0.0,0.0,1.0,313.0,445.0)" opacity="1.0"><path id="ProcessOnPath1099" d="M0.0 0.0L181.0 0.0L181.0 21.0L0.0 21.0Z" stroke="#323232" stroke-width="0.0" stroke-dasharray="none" opacity="1.0" fill="none"/><g id="ProcessOnG1100" transform="matrix(1.0,0.0,0.0,1.0,0.0,2.375)"><text id="ProcessOnText1101" fill="#000000" font-weight="normal" font-style="normal" text-decoration="blink" font-family="微软雅黑" text-anchor="middle" font-size="13" x="90.5" y="13.325">source可以是buffer或者string</text></g></g><g id="ProcessOnG1102" transform="matrix(1.0,0.0,0.0,1.0,313.0,466.0)" opacity="1.0"><path id="ProcessOnPath1103" d="M0.0 0.0L212.0 0.0L212.0 23.0L0.0 23.0Z" stroke="#323232" stroke-width="0.0" stroke-dasharray="none" opacity="1.0" fill="none"/><g id="ProcessOnG1104" transform="matrix(1.0,0.0,0.0,1.0,0.0,3.375)"><text id="ProcessOnText1105" fill="#000000" font-weight="normal" font-style="normal" text-decoration="blink" font-family="微软雅黑" text-anchor="middle" font-size="13" x="106.0" y="13.325">loader可以执行emitFile, 添加assets</text></g></g><g id="ProcessOnG1106"><path id="ProcessOnPath1107" d="M178.125 771.0L178.125 789.5L178.125 789.5L178.125 792.7639320225002" stroke="#323232" stroke-width="2.0" stroke-dasharray="none" fill="none" marker-end="url(#ProcessOnMarker1108)"/></g><g id="ProcessOnG1110"><path id="ProcessOnPath1111" d="M424.0 583.75L424.0 607.125L424.0 607.125L424.0 615.2639320225002" stroke="#323232" stroke-width="2.0" stroke-dasharray="none" fill="none" marker-end="url(#ProcessOnMarker1112)"/></g><g id="ProcessOnG1114" transform="matrix(1.0,0.0,0.0,1.0,320.25,630.5)" opacity="1.0"><path id="ProcessOnPath1115" d="M0.0 0.0L207.5 0.0L207.5 51.0L0.0 51.0Z" stroke="#323232" stroke-width="2.0" stroke-dasharray="none" opacity="1.0" fill="#ffffff"/><g id="ProcessOnG1116" transform="matrix(1.0,0.0,0.0,1.0,10.0,17.375)"><text id="ProcessOnText1117" fill="#000000" font-weight="normal" font-style="normal" text-decoration="blink" font-family="微软雅黑" text-anchor="middle" font-size="13" x="93.75" y="13.325">parser遍历ast，并触发一些插件</text></g></g><g id="ProcessOnG1118" transform="matrix(1.0,0.0,0.0,1.0,548.0,644.5)" opacity="1.0"><path id="ProcessOnPath1119" d="M0.0 0.0L150.0 0.0L150.0 23.0L0.0 23.0Z" stroke="#323232" stroke-width="0.0" stroke-dasharray="none" opacity="1.0" fill="none"/><g id="ProcessOnG1120" transform="matrix(1.0,0.0,0.0,1.0,0.0,3.375)"><text id="ProcessOnText1121" fill="#000000" font-weight="normal" font-style="normal" text-decoration="blink" font-family="微软雅黑" text-anchor="middle" font-size="13" x="75.0" y="13.325">是parser插件添加的依赖</text></g></g><g id="ProcessOnG1122"><path id="ProcessOnPath1123" d="M320.25 656.0L292.3125 656.0L292.3125 656.0L279.6110679774998 656.0" stroke="#323232" stroke-width="2.0" stroke-dasharray="none" fill="none" marker-end="url(#ProcessOnMarker1124)"/></g></g></g></svg>
